<svg width="32" height="32" viewBox="0 0 32 32" fill="none" xmlns="http://www.w3.org/2000/svg">
<rect width="32" height="32" fill="white"/>
<path d="M7.63 15V4.05H10.375L11.485 8.73L12.595 4.05H15.37V15H13.315V10.8C13.315 9.7 13.36 8.645 13.45 7.635C13.55 6.615 13.65 5.72 13.75 4.95L12.37 10.35H10.57L9.22 5.085C9.32 5.735 9.42 6.565 9.52 7.575C9.63 8.575 9.685 9.65 9.685 10.8V15H7.63ZM16.6241 15V4.05H19.3691L20.4791 8.73L21.5891 4.05H24.3641V15H22.3091V10.8C22.3091 9.7 22.3541 8.645 22.4441 7.635C22.5441 6.615 22.6441 5.72 22.7441 4.95L21.3641 10.35H19.5641L18.2141 5.085C18.3141 5.735 18.4141 6.565 18.5141 7.575C18.6241 8.575 18.6791 9.65 18.6791 10.8V15H16.6241Z" fill="black"/>
<path d="M8.725 28V17.05H10.975V25.975H15.4V28H8.725ZM16.9841 28V17.05H20.5091C21.2391 17.05 21.8741 17.17 22.4141 17.41C22.9641 17.64 23.3891 17.965 23.6891 18.385C23.9991 18.805 24.1541 19.3 24.1541 19.87C24.1541 20.49 23.9841 21.01 23.6441 21.43C23.3041 21.84 22.8641 22.085 22.3241 22.165V22.195C22.7341 22.235 23.0941 22.38 23.4041 22.63C23.7241 22.87 23.9691 23.18 24.1391 23.56C24.3191 23.94 24.4091 24.365 24.4091 24.835C24.4091 25.465 24.2491 26.02 23.9291 26.5C23.6191 26.97 23.1791 27.34 22.6091 27.61C22.0491 27.87 21.3941 28 20.6441 28H16.9841ZM19.1591 21.46H20.4791C20.9191 21.46 21.2641 21.345 21.5141 21.115C21.7641 20.875 21.8891 20.555 21.8891 20.155C21.8891 19.745 21.7641 19.43 21.5141 19.21C21.2641 18.98 20.9191 18.865 20.4791 18.865H19.1591V21.46ZM19.1591 26.185H20.5691C21.0591 26.185 21.4441 26.055 21.7241 25.795C22.0041 25.535 22.1441 25.175 22.1441 24.715C22.1441 24.255 22.0041 23.895 21.7241 23.635C21.4441 23.365 21.0591 23.23 20.5691 23.23H19.1591V26.185Z" fill="black"/>
</svg>
